<?xml version="1.0" encoding="utf-8"?>
<!-- Generator: Adobe Illustrator 25.4.3, SVG Export Plug-In . SVG Version: 6.00 Build 0)  -->
<svg version="1.1" id="レイヤー_1" xmlns="http://www.w3.org/2000/svg" xmlns:xlink="http://www.w3.org/1999/xlink" x="0px"
	 y="0px" viewBox="0 0 296.7 318.68" style="enable-background:new 0 0 296.7 318.68;" xml:space="preserve">
<style type="text/css">
	.st0{fill:#FFFFFF;}
	.st1{fill:none;}
	.st2{enable-background:new    ;}
	.st3{fill:#B4B4B4;}
	.st4{fill:#B4B4B4;stroke:#B4B4B4;stroke-width:1.1575;stroke-miterlimit:10;}
	.st5{fill:#B4B4B4;stroke:#B4B4B4;stroke-width:1.1575;stroke-miterlimit:9.9988;}
	.st6{fill:#B4B4B4;stroke:#B4B4B4;stroke-width:1.1575;stroke-miterlimit:10.0003;}
	.st7{fill:#B4B4B4;stroke:#B4B4B4;stroke-width:0.9219;stroke-miterlimit:10;}
	.st8{fill:none;stroke:#FFFFFF;stroke-width:2;stroke-miterlimit:10;}
	.st9{fill:#FFFFFF;stroke:#FFFFFF;stroke-width:2;stroke-miterlimit:10;}
</style>
<g id="レイヤー_1_00000041264713713130775110000011864090760657942964_">
</g>
<g id="レイヤー_2_00000095302035752447456200000013286536447644994194_">
	<g>
		<g>
			<path class="st0" d="M253.66,65.85l-0.83-0.83l-83.38,83.37c0.3,0.25,0.6,0.5,0.89,0.77L253.66,65.85z"/>
			<path class="st0" d="M0,169.74v1.17h116.91c0.01-0.39,0.04-0.78,0.07-1.17H0z"/>
			<path class="st0" d="M148.94,22.98h-1.17v116.95c0.39-0.03,0.78-0.04,1.17-0.05V22.98z"/>
			<path class="st0" d="M120.69,141.84L43.86,65.02l-0.83,0.83l76.82,76.81C120.12,142.38,120.4,142.1,120.69,141.84z"/>
			<path class="st0" d="M147.76,318.68h1.17V201.02c-0.39-0.01-0.78-0.02-1.17-0.05V318.68z"/>
			<path class="st0" d="M296.7,169.74H178c0.03,0.39,0.06,0.78,0.07,1.17H296.7V169.74z"/>
			<path class="st0" d="M169.14,191.95l83.69,83.69l0.83-0.83l-83.7-83.7C169.7,191.4,169.42,191.67,169.14,191.95z"/>
			<path class="st0" d="M43.04,274.81l0.83,0.83l82.72-82.72c-0.26-0.29-0.52-0.59-0.77-0.89L43.04,274.81z"/>
		</g>
		<path id="SVGID_x5F_1_x5F_" class="st1" d="M293.83,177.95c0,81.93-66.42,148.35-148.35,148.35S-2.86,259.88-2.86,177.95
			S63.55,29.6,145.48,29.6S293.83,96.02,293.83,177.95z"/>
		<path class="st0" d="M205.71,73.08c-5.08-2.15-11.41-2.17-15.96,0.1l0,0l-2.4-1.02c-1.54-4.85-5.96-9.38-11.04-11.52
			c-5.08-2.15-9.29-3.93-9.29-3.93l-13.15,31.1c0,0,4.21,1.78,9.29,3.93c5.08,2.15,9.5,6.68,11.04,11.53l0,0l2.4,1.02
			c4.55-2.27,10.88-2.26,15.96-0.11s9.29,3.93,9.29,3.93L215,77.01C215,77.01,210.78,75.23,205.71,73.08z"/>
		<g>
			<g class="st2">
				<path d="M170.26,85.44l-1.15,2.71l-8.72-3.69l0.96-2.27c4.37-3.13,7.01-5.1,7.93-5.9c0.91-0.8,1.49-1.48,1.73-2.04
					c0.18-0.43,0.24-0.79,0.19-1.06c-0.06-0.27-0.24-0.48-0.54-0.6c-0.3-0.13-0.58-0.1-0.82,0.07c-0.25,0.17-0.52,0.61-0.81,1.31
					l-0.64,1.51l-3.55-1.5l0.24-0.58c0.38-0.89,0.72-1.57,1.03-2.05c0.31-0.48,0.75-0.88,1.32-1.23c0.57-0.34,1.2-0.52,1.88-0.53
					c0.68-0.01,1.43,0.15,2.23,0.49c1.58,0.67,2.6,1.56,3.08,2.69c0.48,1.12,0.46,2.28-0.04,3.48c-0.38,0.91-1.02,1.78-1.9,2.6
					c-0.88,0.82-3.13,2.41-6.75,4.76L170.26,85.44z"/>
				<path d="M186.03,76.58l-1.08,2.54l-4.92-2.08l-1.14,2.7c0.92-0.47,1.87-0.5,2.83-0.08c1.09,0.46,1.79,1.12,2.09,1.97
					c0.3,0.85,0.08,2.14-0.65,3.88l-0.96,2.27c-0.48,1.12-0.88,1.93-1.21,2.41c-0.33,0.48-0.77,0.87-1.31,1.17
					c-0.54,0.3-1.18,0.44-1.91,0.41s-1.55-0.24-2.46-0.62c-1.02-0.43-1.84-0.99-2.47-1.67c-0.63-0.69-0.96-1.45-0.98-2.3
					c-0.03-0.85,0.27-2.01,0.9-3.48l0.37-0.86l3.96,1.68l-0.42,0.99c-0.43,1.03-0.71,1.77-0.82,2.23c-0.11,0.46,0.05,0.78,0.47,0.96
					c0.2,0.08,0.38,0.09,0.55,0.01c0.17-0.07,0.3-0.18,0.37-0.32c0.07-0.14,0.35-0.76,0.83-1.86l1.33-3.15
					c0.25-0.59,0.36-1.03,0.33-1.3c-0.03-0.27-0.19-0.46-0.48-0.58c-0.18-0.08-0.36-0.09-0.53-0.03s-0.3,0.14-0.39,0.26
					c-0.09,0.11-0.23,0.4-0.43,0.87l-3.93-1.66l3.55-7.94L186.03,76.58z"/>
			</g>
			<g class="st2">
				<path d="M187.51,85.15l-0.37,0.76c0.32-0.23,0.65-0.36,0.99-0.4c0.33-0.04,0.67,0.01,1.01,0.15c0.67,0.28,1.06,0.81,1.18,1.59
					c0.34-0.22,0.68-0.35,1-0.4c0.33-0.04,0.65,0,0.97,0.14c0.42,0.18,0.73,0.43,0.92,0.75s0.26,0.65,0.21,0.98s-0.21,0.83-0.5,1.5
					l-2.46,5.82l-2.42-1.02l2.26-5.34c0.29-0.7,0.46-1.14,0.48-1.33c0.02-0.19-0.05-0.32-0.22-0.39c-0.18-0.08-0.33-0.04-0.45,0.1
					s-0.33,0.57-0.63,1.27l-2.26,5.34l-2.42-1.02l2.2-5.2c0.34-0.8,0.52-1.29,0.55-1.47c0.03-0.18-0.04-0.3-0.22-0.38
					c-0.11-0.05-0.22-0.04-0.34,0.01c-0.11,0.05-0.2,0.13-0.26,0.25c-0.06,0.12-0.17,0.37-0.34,0.77l-2.4,5.68l-2.42-1.02l3.46-8.19
					L187.51,85.15z"/>
				<path d="M197.35,89.31l-3.46,8.19l-2.57-1.09l3.46-8.19L197.35,89.31z M198.11,87.51l-0.55,1.3L195,87.73l0.55-1.3L198.11,87.51
					z"/>
				<path d="M200.78,90.77l-0.36,0.74c0.31-0.22,0.62-0.36,0.95-0.4c0.33-0.04,0.66,0.01,1,0.16c0.43,0.18,0.73,0.43,0.92,0.75
					c0.19,0.32,0.25,0.64,0.2,0.98c-0.05,0.34-0.23,0.87-0.53,1.58l-2.43,5.74l-2.49-1.05l2.4-5.67c0.24-0.56,0.37-0.92,0.38-1.05
					c0.01-0.14-0.06-0.24-0.23-0.32c-0.18-0.07-0.32-0.05-0.42,0.07s-0.29,0.49-0.55,1.11l-2.34,5.53l-2.49-1.05l3.46-8.19
					L200.78,90.77z"/>
			</g>
		</g>
		<g>
			<path class="st0" d="M244.82,227.54c2.13-5.09,2.11-11.42-0.18-15.96l0,0l1.01-2.41c4.84-1.56,9.35-6,11.47-11.09
				c2.12-5.09,3.89-9.31,3.89-9.31l-31.16-13.01c0,0-1.76,4.22-3.89,9.31s-6.63,9.53-11.47,11.09l0,0l-1.01,2.41
				c2.29,4.54,2.31,10.87,0.18,15.96c-2.12,5.09-3.89,9.31-3.89,9.31l31.16,13.01C240.94,236.84,242.7,232.62,244.82,227.54z"/>
			<g>
				<g class="st2">
					<path d="M233.25,193.18l-2.71-1.13l3.65-8.74l2.27,0.95c3.15,4.36,5.13,6.99,5.93,7.9c0.8,0.91,1.49,1.48,2.05,1.72
						c0.43,0.18,0.79,0.24,1.06,0.18c0.27-0.06,0.47-0.24,0.6-0.54c0.13-0.3,0.1-0.58-0.07-0.82c-0.17-0.25-0.61-0.52-1.31-0.81
						l-1.51-0.63l1.49-3.56l0.58,0.24c0.89,0.37,1.58,0.71,2.05,1.02c0.48,0.31,0.89,0.74,1.24,1.31c0.35,0.57,0.53,1.19,0.54,1.88
						c0.02,0.68-0.15,1.43-0.48,2.23c-0.66,1.58-1.55,2.61-2.67,3.09c-1.12,0.48-2.28,0.47-3.48-0.03
						c-0.91-0.38-1.78-1.01-2.61-1.89c-0.83-0.88-2.42-3.12-4.79-6.73L233.25,193.18z"/>
					<path d="M242.19,208.91l-2.55-1.06l2.06-4.93l-2.7-1.13c0.47,0.92,0.5,1.86,0.1,2.83c-0.46,1.09-1.11,1.79-1.96,2.1
						c-0.85,0.3-2.14,0.09-3.88-0.63l-2.27-0.95c-1.13-0.47-1.93-0.87-2.42-1.2c-0.48-0.33-0.87-0.76-1.17-1.3
						c-0.3-0.54-0.44-1.18-0.42-1.91c0.03-0.73,0.23-1.55,0.61-2.47c0.43-1.02,0.98-1.85,1.66-2.48c0.68-0.63,1.45-0.96,2.29-1
						c0.85-0.03,2.01,0.26,3.49,0.88l0.87,0.36l-1.66,3.97l-0.99-0.42c-1.03-0.43-1.77-0.7-2.24-0.81
						c-0.46-0.11-0.78,0.05-0.96,0.48c-0.08,0.2-0.09,0.38-0.01,0.55c0.07,0.17,0.18,0.29,0.32,0.37c0.14,0.07,0.76,0.34,1.86,0.82
						l3.16,1.32c0.6,0.25,1.03,0.36,1.3,0.32c0.27-0.03,0.46-0.2,0.58-0.48c0.08-0.18,0.09-0.36,0.03-0.53s-0.15-0.3-0.26-0.39
						c-0.11-0.09-0.4-0.23-0.87-0.43l1.64-3.93l7.95,3.52L242.19,208.91z"/>
				</g>
				<g class="st2">
					<path d="M233.62,210.43l-0.76-0.37c0.23,0.32,0.36,0.65,0.41,0.98c0.04,0.33-0.01,0.67-0.15,1.01
						c-0.28,0.67-0.81,1.06-1.59,1.19c0.22,0.34,0.36,0.67,0.4,1c0.04,0.33,0,0.65-0.13,0.97c-0.18,0.42-0.43,0.73-0.75,0.92
						c-0.32,0.19-0.65,0.27-0.98,0.22c-0.33-0.05-0.83-0.21-1.5-0.49l-5.83-2.43l1.01-2.42l5.35,2.23c0.7,0.29,1.14,0.45,1.33,0.47
						s0.32-0.05,0.39-0.23c0.07-0.18,0.04-0.33-0.1-0.45c-0.14-0.12-0.57-0.33-1.27-0.62l-5.35-2.23l1.01-2.42l5.21,2.18
						c0.8,0.34,1.29,0.52,1.47,0.55c0.18,0.03,0.3-0.05,0.38-0.22c0.05-0.11,0.04-0.22-0.01-0.34c-0.05-0.11-0.14-0.2-0.25-0.26
						c-0.12-0.06-0.38-0.17-0.77-0.34l-5.69-2.37l1.01-2.42l8.2,3.43L233.62,210.43z"/>
					<path d="M229.51,220.29l-8.2-3.42l1.07-2.57l8.2,3.42L229.51,220.29z M231.31,221.04l-1.3-0.54l1.07-2.57l1.31,0.54
						L231.31,221.04z"/>
					<path d="M228.07,223.73l-0.74-0.36c0.23,0.31,0.36,0.62,0.4,0.95c0.04,0.33-0.01,0.66-0.15,1c-0.18,0.43-0.43,0.74-0.74,0.92
						c-0.32,0.19-0.64,0.26-0.98,0.21c-0.34-0.05-0.87-0.22-1.58-0.52l-5.75-2.4l1.04-2.5l5.68,2.37c0.57,0.24,0.92,0.36,1.06,0.38
						c0.14,0.01,0.24-0.06,0.31-0.23c0.07-0.18,0.05-0.32-0.07-0.42c-0.12-0.1-0.49-0.29-1.11-0.54l-5.54-2.32l1.04-2.5l8.2,3.42
						L228.07,223.73z"/>
				</g>
			</g>
		</g>
		<g>
			<g class="st2">
				<path class="st3" d="M199.68,282.3l-1.08-2.49l4.82-2.09l-1.15-2.65c-0.29,0.97-0.92,1.67-1.87,2.08
					c-1.07,0.46-2.01,0.51-2.82,0.15c-0.81-0.36-1.58-1.4-2.32-3.11l-0.96-2.23c-0.48-1.1-0.78-1.94-0.89-2.5
					c-0.12-0.56-0.1-1.14,0.06-1.73s0.49-1.14,1.01-1.64c0.52-0.5,1.22-0.95,2.12-1.33c1-0.43,1.96-0.64,2.88-0.62
					c0.92,0.02,1.68,0.3,2.3,0.86s1.25,1.56,1.88,3.01l0.37,0.85l-3.89,1.68l-0.42-0.97c-0.44-1.01-0.78-1.71-1.04-2.1
					c-0.25-0.39-0.59-0.5-1.01-0.32c-0.19,0.08-0.32,0.21-0.39,0.38c-0.07,0.17-0.07,0.33-0.02,0.48c0.05,0.14,0.31,0.76,0.76,1.85
					l1.34,3.09c0.25,0.58,0.49,0.96,0.7,1.11c0.21,0.16,0.46,0.18,0.74,0.05c0.18-0.08,0.31-0.2,0.38-0.36
					c0.08-0.16,0.1-0.31,0.08-0.45s-0.13-0.44-0.33-0.89l3.85-1.67l3.24,7.93L199.68,282.3z"/>
			</g>
			<g class="st2">
				<path class="st3" d="M192.54,277.54l-0.29-0.79c-0.06,0.39-0.19,0.72-0.38,0.98c-0.2,0.27-0.47,0.47-0.8,0.62
					c-0.66,0.29-1.31,0.21-1.95-0.24c-0.08,0.4-0.21,0.73-0.4,0.99c-0.19,0.26-0.45,0.47-0.77,0.6c-0.42,0.18-0.81,0.23-1.17,0.15
					c-0.36-0.08-0.65-0.26-0.85-0.52c-0.21-0.26-0.45-0.72-0.74-1.39l-2.49-5.75l2.39-1.04l2.29,5.28c0.3,0.69,0.51,1.11,0.63,1.25
					c0.12,0.15,0.26,0.18,0.43,0.11c0.17-0.08,0.25-0.21,0.23-0.39c-0.02-0.18-0.18-0.62-0.48-1.32l-2.29-5.28l2.39-1.04l2.23,5.14
					c0.34,0.79,0.57,1.26,0.68,1.4c0.11,0.14,0.25,0.17,0.42,0.1c0.11-0.05,0.19-0.13,0.23-0.25c0.04-0.12,0.04-0.24,0-0.36
					c-0.04-0.12-0.15-0.38-0.32-0.77l-2.43-5.61l2.39-1.04l3.5,8.09L192.54,277.54z"/>
				<path class="st3" d="M182.81,281.75l-3.5-8.09l2.54-1.1l3.5,8.09L182.81,281.75z M183.58,283.53l-0.56-1.29l2.54-1.1l0.56,1.29
					L183.58,283.53z"/>
				<path class="st3" d="M179.42,283.22l-0.28-0.76c-0.05,0.37-0.17,0.69-0.37,0.95c-0.19,0.26-0.46,0.46-0.8,0.61
					c-0.42,0.18-0.81,0.23-1.17,0.15c-0.36-0.08-0.64-0.26-0.84-0.53c-0.21-0.27-0.47-0.76-0.77-1.46l-2.46-5.67l2.46-1.07
					l2.43,5.61c0.24,0.56,0.41,0.89,0.5,0.99s0.22,0.12,0.38,0.05c0.17-0.08,0.25-0.19,0.24-0.35c-0.02-0.16-0.16-0.54-0.42-1.15
					l-2.37-5.47l2.46-1.07l3.5,8.09L179.42,283.22z"/>
			</g>
		</g>
		<g>
			<g>
				<g>
					<path class="st4" d="M165.06,265.53c0.57,0.54,1.28,0.9,2.04,1.04s1.58,0.06,2.33-0.27l2.38-1.04l1.33-0.58l0.08-0.04
						l20.62-8.99c0.43-0.19,0.8-0.45,1.11-0.78c0.46-0.48,0.76-1.08,0.88-1.73c0.12-0.64,0.05-1.34-0.23-1.98l-2.54-5.83
						c-0.76-1.73-1.83-3.24-3.12-4.46c-1.94-1.84-4.37-3.06-6.97-3.54s-5.37-0.22-7.97,0.92c-1.73,0.75-3.24,1.83-4.46,3.12
						c-1.84,1.94-3.06,4.37-3.54,6.97c-0.09,0.5-0.16,1-0.19,1.51c-0.03,0.02-0.07,0.03-0.11,0.04c-1.02,0.44-1.9,1.08-2.62,1.84
						c-1.08,1.14-1.8,2.57-2.08,4.1c-0.28,1.53-0.13,3.16,0.54,4.69c0.5,1.14,0.9,2.06,1.18,2.71c0.28,0.64,0.44,1,0.44,1
						C164.37,264.72,164.68,265.17,165.06,265.53z"/>
				</g>
			</g>
			<path d="M166.53,261.99c-0.28-0.64-0.69-1.57-1.18-2.71c-0.28-0.64-0.41-1.29-0.42-1.94c-0.01-0.97,0.27-1.93,0.78-2.74
				c0.33-0.52,0.76-0.98,1.28-1.36c0.19,1.03,0.49,2.06,0.93,3.06l2.68,6.13l-2.38,1.04c-0.12,0.05-0.24,0.08-0.37,0.08
				c-0.18,0-0.37-0.05-0.52-0.15c-0.15-0.1-0.28-0.24-0.36-0.42C166.96,262.99,166.81,262.63,166.53,261.99z"/>
			
				<rect x="161.43" y="235.43" transform="matrix(0.9166 -0.3997 0.3997 0.9166 -80.1513 89.4635)" class="st5" width="25.97" height="2.92"/>
		</g>
		<g>
			<path class="st0" d="M-20.62,156.72c-4.39-5.28-10.9-7.76-17.27-7.24l0.69,8.26c0.7-0.06,1.39-0.06,2.09,0.01
				c3.07,0.28,5.99,1.72,8.12,4.27c2.12,2.56,2.99,5.69,2.72,8.76c-0.28,3.06-1.72,5.99-4.27,8.11c-1.4,1.16-2.97,1.95-4.61,2.38
				c-0.34,0.09-0.68,0.16-1.02,0.22c-0.35,0.06-0.69,0.1-1.03,0.13c-0.7,0.06-1.39,0.06-2.09,0c-3.07-0.29-5.99-1.72-8.11-4.27
				s-3-5.69-2.72-8.76c0.16-1.73,0.71-3.41,1.6-4.93l4.8,4.22l-0.96-14.89l-14.89,0.96l4.74,4.17c-5.08,7.3-4.92,17.36,1.05,24.54
				c4.39,5.28,10.9,7.76,17.27,7.24c0.58-0.05,1.17-0.12,1.75-0.22s1.16-0.22,1.73-0.37c2.78-0.73,5.44-2.06,7.8-4.02
				C-14.64,178.1-13.46,165.33-20.62,156.72z"/>
		</g>
		<path class="st0" d="M90.42,264.38c4.95,2.44,11.26,2.83,15.94,0.83l0,0l2.34,1.16c1.26,4.93,5.4,9.71,10.35,12.15
			c4.94,2.44,9.04,4.47,9.04,4.47l14.95-30.27c0,0-4.1-2.02-9.04-4.47c-4.95-2.44-9.09-7.22-10.35-12.15l0,0l-2.34-1.16
			c-4.68,2-10.99,1.62-15.94-0.83c-4.94-2.44-9.04-4.47-9.04-4.47l-14.95,30.27C81.37,259.91,85.47,261.94,90.42,264.38z"/>
		<g>
			<g class="st2">
				<path d="M125.43,254.99l1.3-2.64l8.49,4.19l-1.09,2.21c-4.55,2.87-7.3,4.68-8.26,5.42c-0.96,0.74-1.57,1.39-1.84,1.94
					c-0.21,0.42-0.29,0.77-0.25,1.05c0.04,0.28,0.21,0.49,0.5,0.63c0.29,0.15,0.57,0.14,0.83-0.02c0.26-0.16,0.55-0.58,0.89-1.26
					l0.73-1.47l3.46,1.71l-0.28,0.56c-0.43,0.87-0.81,1.53-1.15,1.98c-0.34,0.46-0.8,0.84-1.39,1.15c-0.59,0.31-1.23,0.45-1.91,0.42
					c-0.68-0.03-1.42-0.24-2.2-0.62c-1.54-0.76-2.51-1.71-2.92-2.86c-0.41-1.15-0.33-2.31,0.25-3.47c0.44-0.89,1.12-1.71,2.05-2.48
					c0.93-0.77,3.27-2.22,7.02-4.36L125.43,254.99z"/>
				<path d="M109.17,262.92l1.22-2.47l4.79,2.36l1.3-2.63c-0.95,0.41-1.89,0.38-2.84-0.08c-1.06-0.53-1.72-1.22-1.97-2.09
					c-0.25-0.86,0.04-2.14,0.88-3.84l1.09-2.21c0.54-1.1,0.99-1.87,1.35-2.33c0.36-0.46,0.82-0.82,1.38-1.09s1.2-0.36,1.93-0.29
					s1.54,0.33,2.42,0.76c0.99,0.49,1.78,1.1,2.37,1.82c0.59,0.72,0.87,1.5,0.85,2.35c-0.02,0.85-0.39,1.99-1.1,3.43l-0.42,0.84
					l-3.86-1.91l0.48-0.96c0.49-1,0.81-1.73,0.95-2.18c0.14-0.46,0-0.79-0.42-0.99c-0.19-0.09-0.38-0.11-0.55-0.05
					c-0.18,0.06-0.31,0.16-0.38,0.3c-0.08,0.13-0.39,0.74-0.93,1.81l-1.51,3.07c-0.29,0.58-0.42,1-0.4,1.27
					c0.02,0.27,0.17,0.47,0.45,0.61c0.18,0.09,0.35,0.11,0.53,0.06c0.17-0.05,0.31-0.13,0.41-0.23c0.1-0.11,0.26-0.39,0.48-0.84
					l3.82,1.89l-4.01,7.72L109.17,262.92z"/>
			</g>
			<g class="st2">
				<path d="M108.2,254.28l0.42-0.74c-0.34,0.21-0.67,0.32-1.01,0.34c-0.33,0.02-0.67-0.05-1-0.21c-0.65-0.32-1.01-0.87-1.09-1.66
					c-0.35,0.2-0.69,0.31-1.02,0.34c-0.33,0.02-0.65-0.04-0.96-0.2c-0.41-0.2-0.7-0.47-0.88-0.81c-0.17-0.33-0.22-0.67-0.16-0.99
					c0.07-0.33,0.26-0.82,0.58-1.47l2.8-5.66l2.36,1.16l-2.57,5.2c-0.34,0.68-0.52,1.11-0.56,1.3c-0.03,0.18,0.03,0.32,0.2,0.4
					c0.17,0.08,0.32,0.06,0.45-0.08s0.36-0.55,0.7-1.23l2.56-5.2l2.36,1.16l-2.5,5.06c-0.39,0.78-0.6,1.26-0.64,1.43
					c-0.04,0.18,0.03,0.31,0.2,0.39c0.11,0.05,0.22,0.06,0.34,0.01c0.12-0.04,0.21-0.12,0.27-0.24c0.07-0.11,0.19-0.36,0.38-0.75
					l2.73-5.53l2.35,1.16l-3.93,7.97L108.2,254.28z"/>
				<path d="M97.75,251.3l0.63-1.27l2.5,1.23l-0.63,1.27L97.75,251.3z M98.61,249.55l3.93-7.97l2.5,1.23l-3.93,7.97L98.61,249.55z"
					/>
				<path d="M95.27,247.9l0.41-0.71c-0.32,0.21-0.65,0.32-0.97,0.34c-0.33,0.02-0.66-0.05-0.99-0.21c-0.42-0.21-0.71-0.47-0.88-0.8
					c-0.17-0.33-0.21-0.66-0.14-0.99c0.07-0.34,0.28-0.85,0.62-1.55l2.76-5.59l2.43,1.2l-2.73,5.52c-0.27,0.55-0.42,0.89-0.44,1.03
					c-0.02,0.14,0.05,0.25,0.21,0.33c0.17,0.08,0.31,0.07,0.43-0.05s0.32-0.47,0.61-1.08l2.66-5.39l2.43,1.2l-3.93,7.97L95.27,247.9
					z"/>
			</g>
		</g>
		<g>
			<path class="st0" d="M51.05,113.63c-1.99,5.15-1.81,11.47,0.6,15.95l0,0l-0.94,2.43c-4.8,1.69-9.19,6.25-11.18,11.39
				s-3.64,9.41-3.64,9.41l31.49,12.18c0,0,1.65-4.26,3.64-9.41c1.99-5.15,6.38-9.7,11.18-11.39l0,0l0.94-2.43
				c-2.41-4.48-2.59-10.8-0.6-15.95c1.99-5.14,3.64-9.41,3.64-9.41l-31.49-12.18C54.69,104.22,53.04,108.48,51.05,113.63z"/>
			<g>
				<g class="st2">
					<path d="M63.52,147.66l2.74,1.06l-3.42,8.83l-2.29-0.89c-3.27-4.27-5.31-6.85-6.14-7.74c-0.82-0.89-1.52-1.44-2.09-1.66
						c-0.44-0.17-0.79-0.22-1.06-0.16c-0.27,0.07-0.47,0.25-0.59,0.56s-0.09,0.58,0.09,0.82c0.18,0.24,0.62,0.5,1.33,0.77l1.53,0.59
						l-1.39,3.6l-0.59-0.23c-0.9-0.35-1.59-0.67-2.08-0.96c-0.48-0.29-0.91-0.72-1.27-1.28c-0.36-0.56-0.56-1.18-0.59-1.86
						c-0.03-0.68,0.11-1.43,0.42-2.25c0.62-1.6,1.48-2.65,2.59-3.16c1.11-0.51,2.27-0.53,3.48-0.06c0.92,0.36,1.81,0.96,2.65,1.82
						c0.85,0.86,2.5,3.06,4.96,6.6L63.52,147.66z"/>
					<path d="M54.17,132.17l2.57,1l-1.93,4.98l2.73,1.06c-0.49-0.91-0.55-1.85-0.17-2.83c0.43-1.11,1.06-1.82,1.9-2.15
						c0.84-0.33,2.14-0.15,3.9,0.53l2.29,0.89c1.14,0.44,1.95,0.82,2.45,1.13c0.49,0.32,0.9,0.74,1.21,1.27
						c0.32,0.53,0.47,1.17,0.46,1.9c-0.01,0.73-0.19,1.56-0.54,2.48c-0.4,1.03-0.93,1.87-1.6,2.52c-0.67,0.65-1.42,1-2.26,1.05
						c-0.84,0.05-2.01-0.21-3.51-0.79l-0.87-0.34l1.55-4.01l1,0.39c1.04,0.4,1.79,0.65,2.26,0.75c0.46,0.1,0.78-0.07,0.95-0.5
						c0.08-0.2,0.08-0.38,0-0.55c-0.08-0.17-0.19-0.29-0.33-0.36c-0.14-0.07-0.77-0.32-1.88-0.77l-3.19-1.23
						c-0.6-0.23-1.04-0.33-1.31-0.29c-0.27,0.04-0.46,0.21-0.57,0.5c-0.07,0.19-0.08,0.36-0.01,0.53c0.06,0.17,0.15,0.3,0.27,0.38
						c0.11,0.09,0.41,0.22,0.88,0.4l-1.54,3.97l-8.04-3.31L54.17,132.17z"/>
				</g>
				<g class="st2">
					<path d="M62.69,130.43l0.77,0.35c-0.24-0.32-0.38-0.64-0.43-0.97c-0.05-0.33-0.01-0.67,0.12-1.02
						c0.26-0.67,0.78-1.08,1.55-1.23c-0.23-0.33-0.37-0.66-0.43-0.99c-0.05-0.33-0.02-0.65,0.11-0.98c0.17-0.43,0.41-0.74,0.72-0.94
						c0.32-0.2,0.64-0.28,0.97-0.24c0.33,0.04,0.84,0.19,1.52,0.45l5.89,2.28l-0.95,2.45l-5.4-2.09c-0.71-0.27-1.16-0.42-1.34-0.44
						c-0.19-0.02-0.32,0.06-0.38,0.24c-0.07,0.18-0.03,0.33,0.12,0.44c0.15,0.12,0.58,0.31,1.29,0.59l5.4,2.09l-0.95,2.45
						l-5.27-2.04c-0.81-0.31-1.31-0.48-1.49-0.51c-0.18-0.02-0.3,0.05-0.37,0.23c-0.04,0.11-0.04,0.23,0.02,0.34
						c0.06,0.11,0.14,0.2,0.26,0.25s0.38,0.16,0.78,0.32l5.75,2.22l-0.95,2.45l-8.29-3.21L62.69,130.43z"/>
					<path d="M64.73,119.76l1.32,0.51l-1.01,2.6l-1.32-0.51L64.73,119.76z M66.55,120.46l8.29,3.21l-1.01,2.6l-8.29-3.21
						L66.55,120.46z"/>
					<path d="M67.89,116.99l0.75,0.34c-0.23-0.3-0.38-0.61-0.43-0.94c-0.05-0.32-0.01-0.66,0.13-1c0.17-0.43,0.41-0.75,0.72-0.94
						c0.31-0.2,0.64-0.27,0.98-0.23c0.34,0.04,0.87,0.2,1.6,0.48l5.81,2.25l-0.98,2.52l-5.74-2.22c-0.57-0.22-0.93-0.34-1.06-0.35
						c-0.14-0.01-0.24,0.07-0.31,0.24c-0.07,0.18-0.04,0.32,0.09,0.42c0.13,0.1,0.5,0.27,1.13,0.51l5.6,2.17l-0.98,2.52l-8.29-3.21
						L67.89,116.99z"/>
				</g>
			</g>
		</g>
		<g>
			<g class="st2">
				<path class="st3" d="M90.34,57.96l6.92,15.52l-3.87,1.73l-3.71-8.32c-0.54-1.2-0.89-1.91-1.05-2.13
					c-0.17-0.22-0.41-0.33-0.72-0.34c-0.31-0.01-0.92,0.19-1.81,0.58l-0.38,0.17l-0.81-1.81c1.69-1.24,2.74-2.7,3.16-4.39
					L90.34,57.96z"/>
				<path class="st3" d="M100.29,53.52L101.4,56l-4.8,2.14l1.18,2.64c0.28-0.98,0.9-1.68,1.84-2.1c1.07-0.48,2.01-0.54,2.82-0.18
					c0.81,0.35,1.6,1.38,2.36,3.08l0.99,2.21c0.49,1.1,0.8,1.93,0.92,2.49c0.12,0.56,0.11,1.14-0.04,1.73
					c-0.15,0.59-0.48,1.14-0.99,1.65c-0.51,0.51-1.21,0.96-2.1,1.36c-1,0.44-1.95,0.66-2.87,0.65c-0.92-0.01-1.69-0.29-2.31-0.83
					c-0.63-0.55-1.26-1.54-1.91-2.99l-0.38-0.84l3.87-1.73l0.43,0.97c0.45,1,0.8,1.7,1.06,2.09s0.59,0.49,1.01,0.31
					c0.19-0.09,0.32-0.22,0.38-0.39s0.07-0.33,0.02-0.48c-0.05-0.14-0.31-0.76-0.78-1.85l-1.37-3.08c-0.26-0.58-0.5-0.95-0.71-1.11
					c-0.22-0.16-0.46-0.17-0.75-0.05c-0.18,0.08-0.3,0.2-0.38,0.36c-0.07,0.16-0.1,0.31-0.08,0.45s0.13,0.44,0.33,0.89l-3.83,1.71
					l-3.33-7.89L100.29,53.52z"/>
			</g>
			<g class="st2">
				<path class="st3" d="M107.48,58.2l0.3,0.79c0.05-0.39,0.18-0.72,0.38-0.99c0.19-0.27,0.46-0.48,0.8-0.63
					c0.66-0.29,1.31-0.22,1.95,0.22c0.07-0.4,0.2-0.73,0.39-1c0.19-0.27,0.44-0.47,0.76-0.61c0.42-0.19,0.81-0.24,1.17-0.16
					c0.36,0.08,0.65,0.25,0.86,0.51c0.21,0.26,0.46,0.72,0.75,1.38l2.55,5.72l-2.38,1.06l-2.34-5.25c-0.31-0.69-0.52-1.1-0.64-1.25
					c-0.12-0.14-0.26-0.18-0.43-0.1c-0.17,0.08-0.25,0.21-0.23,0.39c0.02,0.18,0.19,0.62,0.5,1.31l2.34,5.25l-2.38,1.06l-2.28-5.12
					c-0.35-0.79-0.58-1.25-0.69-1.39c-0.11-0.14-0.25-0.17-0.42-0.1c-0.11,0.05-0.18,0.13-0.22,0.25s-0.04,0.24,0.01,0.36
					c0.04,0.12,0.15,0.38,0.33,0.77l2.49,5.58l-2.38,1.06l-3.59-8.05L107.48,58.2z"/>
				<path class="st3" d="M116.37,52.11l0.57,1.28l-2.53,1.13l-0.57-1.28L116.37,52.11z M117.16,53.88l3.59,8.05l-2.53,1.13
					l-3.59-8.05L117.16,53.88z"/>
				<path class="st3" d="M120.54,52.38l0.29,0.76c0.05-0.38,0.16-0.69,0.36-0.96c0.19-0.26,0.45-0.47,0.79-0.62
					c0.42-0.19,0.81-0.24,1.16-0.16c0.36,0.08,0.64,0.25,0.85,0.52c0.21,0.27,0.47,0.75,0.79,1.46l2.52,5.65l-2.45,1.09l-2.49-5.58
					c-0.25-0.55-0.42-0.88-0.51-0.99s-0.22-0.12-0.38-0.05c-0.17,0.08-0.25,0.2-0.23,0.36c0.02,0.16,0.16,0.54,0.43,1.15l2.43,5.44
					l-2.45,1.09l-3.59-8.05L120.54,52.38z"/>
			</g>
		</g>
		<g>
			<g>
				<g>
					<path class="st4" d="M244.72,150.43c0.54-0.57,0.9-1.28,1.04-2.04s0.06-1.58-0.27-2.33l-1.04-2.38l-0.58-1.33l-0.04-0.08
						l-8.99-20.62c-0.19-0.43-0.45-0.8-0.78-1.11c-0.48-0.46-1.08-0.76-1.73-0.88c-0.64-0.12-1.34-0.05-1.98,0.23l-5.83,2.54
						c-1.73,0.76-3.24,1.83-4.46,3.12c-1.84,1.94-3.06,4.37-3.54,6.97c-0.48,2.6-0.22,5.37,0.92,7.97c0.75,1.73,1.83,3.24,3.12,4.46
						c1.94,1.84,4.37,3.06,6.97,3.54c0.5,0.09,1,0.16,1.51,0.19c0.02,0.03,0.03,0.07,0.04,0.11c0.44,1.02,1.08,1.9,1.84,2.62
						c1.14,1.08,2.57,1.8,4.1,2.08s3.16,0.13,4.69-0.54c1.14-0.5,2.06-0.9,2.71-1.18c0.64-0.28,1-0.44,1-0.44
						C243.92,151.12,244.36,150.81,244.72,150.43z"/>
				</g>
			</g>
			<path d="M241.18,148.96c-0.64,0.28-1.57,0.69-2.71,1.18c-0.64,0.28-1.29,0.41-1.94,0.42c-0.97,0.01-1.93-0.27-2.74-0.78
				c-0.52-0.33-0.98-0.76-1.36-1.28c1.03-0.19,2.06-0.49,3.06-0.93l6.13-2.68l1.04,2.38c0.05,0.12,0.08,0.24,0.08,0.37
				c0,0.18-0.05,0.37-0.15,0.52c-0.1,0.15-0.24,0.28-0.42,0.36C242.19,148.53,241.83,148.68,241.18,148.96z"/>
			
				<rect x="214.62" y="128.07" transform="matrix(0.9166 -0.3997 0.3997 0.9166 -38.3688 98.1292)" class="st5" width="2.92" height="25.97"/>
		</g>
		<g>
			<g>
				<g class="st2">
					<path class="st3" d="M261.36,115.43l-2.47,1.13l-2.19-4.78l-2.62,1.2c0.98,0.27,1.69,0.88,2.12,1.82
						c0.49,1.06,0.56,2,0.21,2.82c-0.35,0.82-1.36,1.61-3.05,2.39l-2.2,1.01c-1.09,0.5-1.92,0.82-2.48,0.95
						c-0.56,0.13-1.14,0.12-1.73-0.02c-0.59-0.14-1.15-0.47-1.66-0.98c-0.51-0.51-0.97-1.2-1.38-2.09
						c-0.46-0.99-0.68-1.95-0.68-2.86c0-0.92,0.27-1.69,0.81-2.32c0.54-0.63,1.53-1.28,2.97-1.94l0.84-0.39l1.77,3.85l-0.96,0.44
						c-1,0.46-1.69,0.82-2.08,1.08s-0.49,0.6-0.3,1.01c0.09,0.19,0.22,0.32,0.39,0.38c0.17,0.06,0.33,0.07,0.48,0.01
						c0.14-0.05,0.76-0.32,1.84-0.8l3.06-1.41c0.58-0.27,0.95-0.51,1.1-0.72s0.17-0.46,0.04-0.75c-0.08-0.18-0.21-0.3-0.37-0.37
						c-0.16-0.07-0.32-0.1-0.46-0.07c-0.14,0.02-0.44,0.14-0.89,0.34l-1.75-3.82l7.86-3.41L261.36,115.43z"/>
				</g>
				<g class="st2">
					<path class="st3" d="M256.76,122.67l-0.78,0.31c0.39,0.05,0.72,0.17,0.99,0.36s0.48,0.46,0.64,0.79c0.3,0.65,0.23,1.3-0.2,1.96
						c0.4,0.07,0.73,0.19,1,0.38c0.27,0.19,0.48,0.44,0.62,0.75c0.19,0.42,0.25,0.8,0.17,1.17c-0.08,0.37-0.24,0.65-0.5,0.86
						c-0.26,0.21-0.71,0.47-1.37,0.77l-5.7,2.62l-1.09-2.37l5.23-2.4c0.68-0.31,1.1-0.53,1.24-0.65c0.14-0.12,0.17-0.27,0.1-0.43
						c-0.08-0.17-0.21-0.25-0.4-0.22s-0.62,0.19-1.31,0.51l-5.23,2.4l-1.09-2.37l5.09-2.34c0.79-0.36,1.25-0.6,1.39-0.71
						s0.17-0.25,0.09-0.43c-0.05-0.11-0.13-0.18-0.25-0.22c-0.12-0.04-0.24-0.04-0.36,0.01s-0.38,0.16-0.76,0.34l-5.56,2.55
						l-1.09-2.37l8.02-3.68L256.76,122.67z"/>
					<path class="st3" d="M261.18,132.31l-8.02,3.68l-1.15-2.51l8.02-3.68L261.18,132.31z M262.95,131.5l-1.28,0.58l-1.15-2.51
						l1.28-0.59L262.95,131.5z"/>
					<path class="st3" d="M262.73,135.67l-0.76,0.3c0.38,0.04,0.7,0.16,0.96,0.35c0.26,0.19,0.47,0.45,0.63,0.78
						c0.19,0.42,0.25,0.81,0.18,1.16s-0.25,0.64-0.51,0.86c-0.27,0.21-0.75,0.48-1.45,0.8l-5.62,2.58l-1.12-2.44l5.55-2.55
						c0.55-0.25,0.88-0.43,0.98-0.52c0.1-0.09,0.12-0.22,0.04-0.39c-0.08-0.17-0.2-0.25-0.36-0.23c-0.16,0.02-0.54,0.17-1.15,0.45
						l-5.42,2.49l-1.12-2.44l8.02-3.68L262.73,135.67z"/>
				</g>
			</g>
		</g>
		<g>
			<g>
				<g class="st2">
					<path class="st3" d="M36.52,223.83l2.45-1.19l2.3,4.73l2.6-1.26c-0.99-0.25-1.71-0.84-2.16-1.77c-0.51-1.05-0.6-1.99-0.28-2.81
						c0.33-0.82,1.33-1.64,3-2.46L46.6,218c1.08-0.53,1.9-0.86,2.46-1c0.56-0.14,1.13-0.15,1.73-0.02c0.6,0.13,1.16,0.44,1.68,0.94
						c0.52,0.5,1,1.18,1.42,2.06c0.48,0.98,0.73,1.93,0.75,2.85c0.02,0.92-0.23,1.7-0.76,2.34c-0.53,0.65-1.5,1.31-2.92,2l-0.83,0.4
						l-1.85-3.81l0.95-0.46c0.99-0.48,1.67-0.86,2.05-1.13c0.38-0.27,0.47-0.61,0.27-1.02c-0.09-0.19-0.23-0.31-0.4-0.37
						c-0.18-0.06-0.34-0.06-0.48,0c-0.14,0.06-0.75,0.34-1.82,0.84l-3.03,1.47c-0.57,0.28-0.93,0.53-1.08,0.75
						c-0.15,0.22-0.16,0.47-0.02,0.75c0.08,0.18,0.21,0.3,0.38,0.37c0.17,0.07,0.32,0.09,0.46,0.06c0.14-0.03,0.43-0.15,0.88-0.36
						l1.84,3.78l-7.78,3.58L36.52,223.83z"/>
				</g>
				<g class="st2">
					<path class="st3" d="M40.96,216.49l0.77-0.33c-0.39-0.04-0.72-0.16-1-0.34c-0.28-0.19-0.49-0.45-0.65-0.78
						c-0.31-0.65-0.26-1.3,0.16-1.96c-0.4-0.06-0.73-0.18-1.01-0.36s-0.49-0.43-0.64-0.74c-0.2-0.41-0.27-0.8-0.2-1.16
						c0.07-0.37,0.23-0.66,0.48-0.87c0.25-0.21,0.7-0.48,1.35-0.8l5.64-2.74l1.14,2.34l-5.17,2.51c-0.68,0.33-1.09,0.56-1.23,0.68
						s-0.17,0.27-0.09,0.44c0.08,0.17,0.22,0.24,0.4,0.21c0.18-0.03,0.62-0.21,1.3-0.54l5.17-2.51l1.14,2.34l-5.04,2.45
						c-0.78,0.38-1.23,0.62-1.37,0.74c-0.14,0.11-0.16,0.26-0.08,0.43c0.05,0.11,0.14,0.18,0.26,0.21c0.12,0.04,0.24,0.03,0.36-0.02
						c0.12-0.05,0.37-0.17,0.76-0.35l5.5-2.67l1.14,2.34l-7.93,3.86L40.96,216.49z"/>
					<path class="st3" d="M34.57,207.8l1.26-0.61l1.21,2.49l-1.26,0.61L34.57,207.8z M36.32,206.95l7.93-3.86l1.21,2.49l-7.93,3.86
						L36.32,206.95z"/>
					<path class="st3" d="M34.7,203.63l0.75-0.31c-0.38-0.03-0.7-0.14-0.97-0.32c-0.27-0.18-0.48-0.44-0.64-0.77
						c-0.2-0.42-0.27-0.8-0.2-1.16c0.07-0.36,0.23-0.65,0.49-0.87c0.26-0.22,0.74-0.5,1.43-0.83l5.56-2.7l1.17,2.42l-5.49,2.67
						c-0.55,0.26-0.87,0.44-0.97,0.54c-0.1,0.09-0.11,0.22-0.04,0.39c0.08,0.17,0.21,0.25,0.36,0.22s0.54-0.18,1.14-0.47l5.36-2.61
						l1.17,2.42l-7.93,3.86L34.7,203.63z"/>
				</g>
			</g>
			<g>
				<g>
					<g>
						<path class="st4" d="M51.76,188.51c-0.51,0.59-0.84,1.32-0.95,2.08s0.01,1.58,0.37,2.32l1.14,2.34l0.64,1.3l0.04,0.08
							l9.89,20.2c0.2,0.42,0.49,0.78,0.82,1.07c0.5,0.44,1.12,0.71,1.76,0.8c0.65,0.09,1.34-0.01,1.97-0.31l5.71-2.8
							c1.7-0.83,3.15-1.97,4.32-3.32c1.75-2.02,2.87-4.5,3.24-7.11c0.37-2.61-0.02-5.37-1.27-7.92c-0.83-1.7-1.97-3.15-3.32-4.32
							c-2.02-1.75-4.5-2.87-7.11-3.24c-0.5-0.07-1.01-0.11-1.52-0.13c-0.02-0.03-0.03-0.07-0.05-0.1c-0.49-1-1.16-1.85-1.95-2.54
							c-1.19-1.03-2.64-1.69-4.18-1.9c-1.54-0.22-3.16,0.01-4.66,0.74c-1.11,0.54-2.02,0.99-2.65,1.3s-0.98,0.48-0.98,0.48
							C52.53,187.78,52.1,188.12,51.76,188.51z"/>
					</g>
				</g>
				<path d="M55.36,189.82c0.63-0.31,1.54-0.75,2.65-1.3c0.62-0.3,1.27-0.47,1.92-0.5c0.97-0.05,1.94,0.18,2.77,0.66
					c0.54,0.31,1.02,0.72,1.41,1.22c-1.02,0.23-2.03,0.58-3.01,1.06l-6.01,2.94l-1.14-2.34c-0.06-0.12-0.09-0.24-0.1-0.36
					c-0.01-0.18,0.03-0.37,0.13-0.53c0.09-0.16,0.22-0.29,0.4-0.38C54.38,190.3,54.73,190.13,55.36,189.82z"/>
				
					<rect x="79.29" y="183.62" transform="matrix(0.8982 -0.4396 0.4396 0.8982 -78.2071 55.5135)" class="st6" width="2.92" height="25.97"/>
			</g>
		</g>
	</g>
	<g>
		<path class="st7" d="M133.17,83.05c-0.14-0.31-0.34-0.53-0.58-0.72c-0.22-0.17-0.49-0.3-0.82-0.34l0,0l-18.91-2.95
			c-2.02-1.88-4.44-2.19-5.7-1.64c-0.29,0.13-0.6,0.34-0.89,0.62l-1.18-0.18h-0.01c-0.62-0.08-1.22,0.06-1.82,0.32
			c-0.62,0.27-1.26,0.68-1.88,1.21c-0.94,0.78-1.85,1.82-2.62,3.04c-0.76,1.22-1.37,2.63-1.67,4.15c-0.41,2.1-0.46,4.05-0.29,5.75
			c0.17,1.69,0.55,3.13,1.03,4.22c0.08,0.19,0.17,0.37,0.26,0.54l4.86,11.14c0.59,1.34,2.15,1.96,3.49,1.37l29.44-12.84
			c1.32-0.57,1.94-2.09,1.4-3.42l-4.07-10.09l0,0C133.2,83.16,133.19,83.1,133.17,83.05z M112.68,82.57
			c-0.15-0.45-0.1-0.88,0.12-0.95c0.22-0.08,0.52,0.23,0.67,0.68s0.1,0.88-0.12,0.95S112.83,83.02,112.68,82.57z M110.26,79.32
			c0.2-0.12,0.57,0.1,0.83,0.5s0.31,0.82,0.11,0.94s-0.57-0.1-0.83-0.5S110.06,79.44,110.26,79.32z M112.63,86.12
			c-0.15-0.45-0.1-0.88,0.12-0.95c0.22-0.08,0.52,0.23,0.67,0.68s0.1,0.88-0.12,0.95C113.08,86.88,112.78,86.57,112.63,86.12z
			 M109.76,83.84c-0.15-0.45-0.1-0.88,0.12-0.95c0.22-0.08,0.52,0.23,0.67,0.68s0.1,0.88-0.12,0.95S109.91,84.29,109.76,83.84z
			 M110.26,87.16c0.26,0.4,0.31,0.82,0.11,0.94s-0.57-0.1-0.83-0.5s-0.31-0.82-0.11-0.94S110,86.76,110.26,87.16z M106.47,81.97
			c-0.15-0.45-0.09-0.88,0.13-0.95c0.22-0.07,0.52,0.23,0.67,0.68s0.09,0.88-0.13,0.95C106.92,82.73,106.62,82.42,106.47,81.97z
			 M135.69,93.96c0.19,0.47-0.03,0.99-0.49,1.2L105.76,108c-0.47,0.2-1.01-0.01-1.22-0.48l-1.19-2.73l31.21-13.61L135.69,93.96z
			 M133.56,88.69l-31.27,13.64h-0.01l-1.66-3.81l31.39-13.69L133.56,88.69z M131.58,83.76l-31.36,13.68l-0.07-0.03
			c-0.01,0-0.01-0.01-0.02-0.02l-0.46-1.04l-0.02-0.03c-0.08-0.14-0.16-0.3-0.23-0.48c-0.39-0.9-0.74-2.17-0.89-3.7
			s-0.11-3.32,0.27-5.25c0.33-1.7,1.15-3.31,2.15-4.57c0.49-0.63,1.03-1.19,1.55-1.62c0.52-0.44,1.03-0.76,1.46-0.95
			c0.41-0.18,0.73-0.22,0.88-0.2l0.32,0.05c-0.79,1.65-1.06,4.07,0.16,6.86c1.65,3.78,5.14,3.3,6.9,2.54c1.76-0.77,4.48-3,2.84-6.78
			c-0.18-0.42-0.39-0.8-0.6-1.17l17.08,2.66l0.04,0.03V83.76L131.58,83.76z M107.46,85.88c-0.2,0.12-0.57-0.1-0.83-0.5
			s-0.31-0.82-0.11-0.94s0.57,0.1,0.83,0.5C107.61,85.33,107.66,85.75,107.46,85.88z"/>
	</g>
</g>
<g id="レイヤー_3">
</g>
<path class="st0" d="M-74.15,133.21"/>
<g>
	<g>
		<path class="st0" d="M149,142.74L149,142.74v7l0,0c11.42,0,19.19,9.29,19.19,20.71s-9.29,20.71-20.71,20.71
			s-20.71-9.29-20.71-20.71c0-5.71,2.32-10.89,6.08-14.64c1.23-1.23,2.62-2.3,4.12-3.19l-2.76-6.49c-2.33,1.27-4.45,2.87-6.31,4.73
			c-5.02,5.02-8.12,11.95-8.12,19.58c0,15.28,12.43,27.71,27.71,27.71s27.71-12.43,27.71-27.71S164.28,142.74,149,142.74z"/>
	</g>
	<g>
		<path class="st8" d="M149,142.74L149,142.74v7l0,0c11.42,0,19.19,9.29,19.19,20.71s-9.29,20.71-20.71,20.71
			s-20.71-9.29-20.71-20.71c0-5.71,2.32-10.89,6.08-14.64c1.23-1.23,2.62-2.3,4.12-3.19l-2.76-6.49c-2.33,1.27-4.45,2.87-6.31,4.73
			c-5.02,5.02-8.12,11.95-8.12,19.58c0,15.28,12.43,27.71,27.71,27.71s27.71-12.43,27.71-27.71S164.28,142.74,149,142.74z"/>
	</g>
</g>
<polygon class="st9" points="138.51,160.85 122.45,144.79 138.51,144.79 "/>
<g>
	<path class="st0" d="M186.1,17.15l-5.44-1.05l0.32-1.67c0.15-0.78,0.18-1.29,0.08-1.53c-0.1-0.24-0.31-0.39-0.63-0.45
		c-0.35-0.07-0.65,0.02-0.88,0.28c-0.24,0.25-0.41,0.67-0.52,1.25c-0.15,0.75-0.15,1.34-0.02,1.76c0.12,0.42,0.58,0.98,1.39,1.7
		c2.31,2.05,3.7,3.64,4.19,4.76c0.48,1.12,0.51,2.79,0.09,4.99c-0.31,1.6-0.73,2.75-1.25,3.44c-0.52,0.69-1.37,1.18-2.55,1.49
		s-2.48,0.32-3.9,0.04c-1.57-0.3-2.85-0.86-3.84-1.67c-0.99-0.81-1.57-1.7-1.74-2.69s-0.08-2.32,0.24-4.01l0.29-1.47l5.44,1.05
		l-0.53,2.74c-0.16,0.84-0.19,1.4-0.08,1.67s0.35,0.44,0.74,0.52c0.39,0.08,0.71-0.02,0.96-0.29c0.25-0.27,0.43-0.7,0.55-1.31
		c0.26-1.33,0.24-2.23-0.04-2.7c-0.29-0.48-1.07-1.34-2.34-2.57c-1.27-1.25-2.1-2.13-2.49-2.66c-0.39-0.53-0.66-1.21-0.83-2.03
		c-0.16-0.83-0.13-1.84,0.11-3.04c0.33-1.72,0.8-2.94,1.39-3.65c0.59-0.71,1.43-1.2,2.5-1.46c1.07-0.26,2.3-0.25,3.69,0.02
		c1.52,0.29,2.77,0.79,3.74,1.49c0.98,0.7,1.56,1.45,1.77,2.27s0.13,2.11-0.21,3.9L186.1,17.15z"/>
	<path class="st0" d="M202.85,14.7l-1.29,4.4l-3.4-0.99l-5.14,17.6l-5.72-1.67l5.14-17.6l-3.38-0.99l1.29-4.4L202.85,14.7z"/>
	<path class="st0" d="M215.25,19.47L210,42.04l-5.67-2.24l1.22-3.95l-1.98-0.78l-1.85,3.7l-5.73-2.27l11.25-20.2L215.25,19.47z
		 M206.9,32.01c0.67-2.53,1.57-5.62,2.69-9.29c-2.18,3.86-3.71,6.7-4.6,8.53L206.9,32.01z"/>
	<path class="st0" d="M220.96,21.92l3.75,1.93c2.5,1.29,4.14,2.26,4.93,2.91s1.25,1.51,1.4,2.59s-0.22,2.49-1.12,4.23
		c-0.82,1.59-1.56,2.55-2.24,2.89c-0.67,0.34-1.62,0.27-2.83-0.22c0.92,0.8,1.44,1.51,1.58,2.13c0.14,0.62,0.15,1.14,0.05,1.55
		c-0.1,0.41-0.57,1.44-1.42,3.08l-2.77,5.38l-4.92-2.54l3.49-6.77c0.56-1.09,0.82-1.81,0.79-2.16c-0.04-0.35-0.42-0.71-1.15-1.09
		l-4.74,9.19l-5.3-2.73L220.96,21.92z M224.46,28.14l-2.33,4.53c0.6,0.31,1.05,0.44,1.38,0.4c0.32-0.04,0.72-0.51,1.18-1.41
		l0.58-1.12c0.33-0.65,0.44-1.13,0.31-1.45C225.44,28.77,225.08,28.46,224.46,28.14z"/>
	<path class="st0" d="M246.33,36.54l-2.48,3.86l-2.98-1.91l-9.9,15.44l-5.02-3.22l9.9-15.44l-2.97-1.9l2.48-3.86L246.33,36.54z"/>
	<path class="st0" d="M241.97,56.2l-2.74,3.68l-4.3-3.19l2.74-3.68L241.97,56.2z M253.28,41.77l-11.05,13.3l-3.55-2.64l9.55-14.41
		L253.28,41.77z"/>
</g>
</svg>
